<svg width="117" height="88" viewBox="0 0 117 88" fill="none" xmlns="http://www.w3.org/2000/svg">
<path d="M107.25 0H9.75C4.43625 0.195 0.195 4.43625 0 9.75V78C0.195 83.3138 4.43625 87.555 9.75 87.75H107.25C112.564 87.555 116.805 83.3138 117 78V9.75C116.91 7.1927 115.854 4.76455 114.045 2.95515C112.235 1.14576 109.807 0.0897265 107.25 0ZM107.25 78H9.75V9.75H107.25V78ZM68.25 68.25V62.1562C68.25 54.0638 51.9675 49.9688 43.875 49.9688C35.7825 49.9688 19.5 54.0638 19.5 62.1562V68.25H68.25ZM43.875 19.5C40.6427 19.5 37.5427 20.784 35.2571 23.0696C32.9715 25.3552 31.6875 28.4552 31.6875 31.6875C31.6875 33.288 32.0027 34.8728 32.6152 36.3515C33.2277 37.8301 34.1254 39.1736 35.2571 40.3054C37.5427 42.591 40.6427 43.875 43.875 43.875C45.4755 43.875 47.0603 43.5598 48.539 42.9473C50.0176 42.3348 51.3611 41.4371 52.4929 40.3054C53.6246 39.1736 54.5223 37.8301 55.1348 36.3515C55.7473 34.8728 56.0625 33.288 56.0625 31.6875C56.0625 30.087 55.7473 28.5022 55.1348 27.0235C54.5223 25.5449 53.6246 24.2014 52.4929 23.0696C51.3611 21.9379 50.0176 21.0402 48.539 20.4277C47.0603 19.8152 45.4755 19.5 43.875 19.5ZM68.25 19.5V24.375H97.5V19.5H68.25ZM68.25 29.25V34.125H97.5V29.25H68.25ZM68.25 39V43.875H87.75V39H68.25Z" fill="#DED27C"/>
</svg>
